# xmcd
#
# Track frame offsets:
# 150
# 16697
# 30650
# 42140
# 54890
# 68407
# 81150
# 93685
# 107872
# 120935
# 137737
# 149595
#
# Disc length: 2207 seconds
#
#
# Revision: 0
# Processed by: cddbd v1.4PL0 Copyright (c) Steve Scherf et al.
# Submitted via: FreeRIP 2.40 
#
DISCID=95089d0c
DTITLE=Merle Haggard and The Strangers - Classics
DYEAR=1900
DGENRE=Country
TTITLE0=Ramblin' Fever
TTITLE1=I Threw Away The Rose
TTITLE2=(My Friends Are Gonna Be) Strangers
TTITLE3=It's Been A Great Afternoon
TTITLE4=The Way I Am
TTITLE5=Silver Wings
TTITLE6=If We Make It Through December
TTITLE7=Always Wanting You
TTITLE8=Sing Me Back Home
TTITLE9=Daddy Frank (The Guitar Man)
TTITLE10=Carolyn
TTITLE11=It's Not Love (But It's Not Bad)
EXTD=
EXTT0=
EXTT1=
EXTT2=
EXTT3=
EXTT4=
EXTT5=
EXTT6=
EXTT7=
EXTT8=
EXTT9=
EXTT10=
EXTT11=
PLAYORDER=
